# xmcd
#
# Track frame offsets:
#	150
#	15803
#	31035
#	49344
#	66287
#	81956
#	99333
#	116666
#	134037
#	148288
#	171043
#	187236
#	205676
#	221550
#	237835
#	255652
#
# Disc length: 3623 seconds
#
# Revision: 1
# Processed by: cddbd v1.5.2PL0 Copyright (c) Steve Scherf et al.
# Submitted via: audiograbber 1.83.01
#
DISCID=e60e2510
DTITLE=JonesTM - HC200730
DYEAR=2007
DGENRE=Country
TTITLE0=Jennifer Hanson - Joyride
TTITLE1=Kristina Cornell - It's A Girl Thing
TTITLE2=Joanna Cotten - The Prize [Intro Edit]
TTITLE3=Mudhog - I Don't Know If I'm Coming Home
TTITLE4=Daniel lee Martin - Stark Ravin' Crazy In Love
TTITLE5=Ledisi - Alright [Radio Edit #1]
TTITLE6=Ledisi - Alright [Radio Edit #2]
TTITLE7=Candy Hill - Spare [Radio Edit]
TTITLE8=Amy Winehouse - Tears Dry On Their Own
TTITLE9=Lenny Williams - Somebody Else
TTITLE10=Raul Midon - All Because Of You
TTITLE11=Joey Sommerville Feat. Marion Meadow - Follow Me [Album Version]
TTITLE12=Joyce Cooling - Cool Of The Night [Radio Edit - No FX]
TTITLE13=Joyce Cooling - Cool Of The Night [Radio Edit]
TTITLE14=N-Groove - Funny How Time Flies [Album Version]
TTITLE15=Nick Colionne - Keepin' It Cool
EXTD=
EXTT0=
EXTT1=
EXTT2=
EXTT3=
EXTT4=
EXTT5=
EXTT6=
EXTT7=
EXTT8=
EXTT9=
EXTT10=
EXTT11=
EXTT12=
EXTT13=
EXTT14=
EXTT15=
PLAYORDER=
